<svg width="49" height="40" viewBox="0 0 49 40" fill="none" xmlns="http://www.w3.org/2000/svg">
<g clip-path="url(#clip0_3017_11759)">
<path fill-rule="evenodd" clip-rule="evenodd" d="M46.417 38.7257C46.417 38.7257 49.5003 38.7257 49.5003 35.6146C49.5003 32.5034 46.417 23.1701 34.0837 23.1701C21.7503 23.1701 18.667 32.5034 18.667 35.6146C18.667 38.7257 21.7503 38.7257 21.7503 38.7257H46.417ZM21.8182 35.6146H46.3492C46.3636 35.6129 46.378 35.6108 46.3923 35.6083L46.417 35.6021C46.4108 34.7808 45.9021 32.3977 44.0737 30.251C42.3717 28.2381 39.3808 26.2812 34.0837 26.2812C28.7896 26.2812 25.7987 28.2412 24.0937 30.251C22.2652 32.3977 21.7534 34.7839 21.7503 35.6021C21.7729 35.6065 21.7955 35.6106 21.8182 35.6146ZM34.0837 16.9479C35.7192 16.9479 37.2877 16.2923 38.4441 15.1254C39.6006 13.9585 40.2503 12.3759 40.2503 10.7257C40.2503 9.07543 39.6006 7.49278 38.4441 6.32589C37.2877 5.159 35.7192 4.50344 34.0837 4.50344C32.4482 4.50344 30.8796 5.159 29.7232 6.32589C28.5667 7.49278 27.917 9.07543 27.917 10.7257C27.917 12.3759 28.5667 13.9585 29.7232 15.1254C30.8796 16.2923 32.4482 16.9479 34.0837 16.9479ZM43.3337 10.7257C43.3337 11.9513 43.0944 13.165 42.6295 14.2974C42.1647 15.4298 41.4833 16.4586 40.6244 17.3253C39.7655 18.192 38.7457 18.8795 37.6235 19.3485C36.5012 19.8176 35.2984 20.059 34.0837 20.059C32.8689 20.059 31.6661 19.8176 30.5438 19.3485C29.4216 18.8795 28.4019 18.192 27.5429 17.3253C26.684 16.4586 26.0026 15.4298 25.5378 14.2974C25.0729 13.165 24.8337 11.9513 24.8337 10.7257C24.8337 8.25031 25.8082 5.87634 27.5429 4.126C29.2776 2.37566 31.6304 1.39233 34.0837 1.39233C36.5369 1.39233 38.8897 2.37566 40.6244 4.126C42.3591 5.87634 43.3337 8.25031 43.3337 10.7257ZM21.553 24.0412C20.3196 23.6493 19.0482 23.3917 17.7605 23.2728C17.0369 23.2034 16.3105 23.1691 15.5837 23.1701C3.25033 23.1701 0.166992 32.5034 0.166992 35.6146C0.166992 37.6897 1.19374 38.7257 3.25033 38.7257H16.2497C15.7926 37.7544 15.5646 36.6896 15.5837 35.6146C15.5837 32.4723 16.7461 29.2617 18.9445 26.5799C19.6937 25.6652 20.5663 24.8097 21.553 24.0412ZM15.337 26.2812C10.194 26.3434 7.27408 28.2723 5.59366 30.251C3.75291 32.4101 3.25033 34.8026 3.25033 35.6146H12.5003C12.5003 32.3634 13.4962 29.1248 15.337 26.2812ZM4.79199 12.2812C4.79199 9.80587 5.76654 7.4319 7.50125 5.68156C9.23597 3.93122 11.5887 2.94789 14.042 2.94789C16.4952 2.94789 18.848 3.93122 20.5827 5.68156C22.3174 7.4319 23.292 9.80587 23.292 12.2812C23.292 14.7566 22.3174 17.1305 20.5827 18.8809C18.848 20.6312 16.4952 21.6146 14.042 21.6146C11.5887 21.6146 9.23597 20.6312 7.50125 18.8809C5.76654 17.1305 4.79199 14.7566 4.79199 12.2812ZM14.042 6.059C12.4065 6.059 10.838 6.71455 9.6815 7.88145C8.52503 9.04834 7.87533 10.631 7.87533 12.2812C7.87533 13.9315 8.52503 15.5141 9.6815 16.681C10.838 17.8479 12.4065 18.5034 14.042 18.5034C15.6775 18.5034 17.246 17.8479 18.4025 16.681C19.559 15.5141 20.2087 13.9315 20.2087 12.2812C20.2087 10.631 19.559 9.04834 18.4025 7.88145C17.246 6.71455 15.6775 6.059 14.042 6.059Z" fill="#E77C40"/>
</g>
<defs>
<clipPath id="clip0_3017_11759">
<rect width="48" height="39.5295" fill="white" transform="translate(0.5 0.059082)"/>
</clipPath>
</defs>
</svg>
